# xmcd
#
# Track frame offsets:
#   165
#   15193
#   31431
#   48275
#   67687
#   79959
#   95917
#   111272
#   125419
#   139244
#
# Disc length: 2120 seconds
#
# Revision: 0
# Processed by: cddbd v1.4PL0 Copyright (c) Steve Scherf et al.
# Submitted via: uFREEDB 1.6.0
#
DISCID=7f08460a
DTITLE=Almir Sater - Cria
DYEAR=1986
DGENRE=Country
TTITLE0=Razões
TTITLE1=Missões Naturais
TTITLE2=Água que Correu
TTITLE3=Moda Apaixonada
TTITLE4=Capim de Ribanceira
TTITLE5=Kikio
TTITLE6=Trem de Lata
TTITLE7=Ana Bonita
TTITLE8=Mais um Verão
TTITLE9=Rio de Lágrimas
EXTD=
EXTT0=
EXTT1=
EXTT2=
EXTT3=
EXTT4=
EXTT5=
EXTT6=
EXTT7=
EXTT8=
EXTT9=
PLAYORDER=
